<svg width="19" height="20" viewBox="0 0 19 20" fill="none" xmlns="http://www.w3.org/2000/svg">
<path d="M13.5 5C13.5 4.73478 13.6054 4.48043 13.7929 4.29289C13.9804 4.10536 14.2348 4 14.5 4C14.7652 4 15.0196 4.10536 15.2071 4.29289C15.3946 4.48043 15.5 4.73478 15.5 5C15.5 5.26522 15.3946 5.51957 15.2071 5.70711C15.0196 5.89464 14.7652 6 14.5 6C14.2348 6 13.9804 5.89464 13.7929 5.70711C13.6054 5.51957 13.5 5.26522 13.5 5Z" fill="#CEAAD0"/>
<path fill-rule="evenodd" clip-rule="evenodd" d="M9.5 5.25C8.24022 5.25 7.03204 5.75045 6.14124 6.64124C5.25045 7.53204 4.75 8.74022 4.75 10C4.75 11.2598 5.25045 12.468 6.14124 13.3588C7.03204 14.2496 8.24022 14.75 9.5 14.75C10.7598 14.75 11.968 14.2496 12.8588 13.3588C13.7496 12.468 14.25 11.2598 14.25 10C14.25 8.74022 13.7496 7.53204 12.8588 6.64124C11.968 5.75045 10.7598 5.25 9.5 5.25ZM6.25 10C6.25 9.13805 6.59241 8.3114 7.2019 7.7019C7.8114 7.09241 8.63805 6.75 9.5 6.75C10.362 6.75 11.1886 7.09241 11.7981 7.7019C12.4076 8.3114 12.75 9.13805 12.75 10C12.75 10.862 12.4076 11.6886 11.7981 12.2981C11.1886 12.9076 10.362 13.25 9.5 13.25C8.63805 13.25 7.8114 12.9076 7.2019 12.2981C6.59241 11.6886 6.25 10.862 6.25 10Z" fill="#CEAAD0"/>
<path fill-rule="evenodd" clip-rule="evenodd" d="M14.7581 0.832545C11.2634 0.445141 7.73669 0.445141 4.24206 0.832545C2.23006 1.05755 0.605056 2.64255 0.369056 4.66455C-0.0455446 8.20913 -0.0455446 11.79 0.369056 15.3345C0.605056 17.3565 2.22906 18.9415 4.24206 19.1665C7.73671 19.5536 11.2634 19.5536 14.7581 19.1665C16.7701 18.9415 18.3951 17.3565 18.6311 15.3345C19.0457 11.79 19.0457 8.20913 18.6311 4.66455C18.3951 2.64255 16.7711 1.05755 14.7581 0.832545ZM4.40806 2.32255C7.79236 1.94742 11.2078 1.94742 14.5921 2.32255C15.9221 2.47255 16.9871 3.52155 17.1421 4.83955C17.543 8.26786 17.543 11.7312 17.1421 15.1595C17.0619 15.8046 16.7666 16.4038 16.3039 16.8603C15.8412 17.3168 15.2381 17.604 14.5921 17.6755C11.2078 18.0507 7.79236 18.0507 4.40806 17.6755C3.762 17.604 3.15891 17.3168 2.69621 16.8603C2.23351 16.4038 1.93823 15.8046 1.85806 15.1595C1.4571 11.7312 1.4571 8.26786 1.85806 4.83955C1.93823 4.1945 2.23351 3.59532 2.69621 3.1388C3.15891 2.68227 3.762 2.39405 4.40806 2.32255Z" fill="#CEAAD0"/>
</svg>
